<?xml version="1.0" encoding="utf-8"?>
<!-- Generator: Adobe Illustrator 19.2.1, SVG Export Plug-In . SVG Version: 6.00 Build 0)  -->
<svg version="1.1" id="Layer_1" xmlns="http://www.w3.org/2000/svg" xmlns:xlink="http://www.w3.org/1999/xlink" x="0px" y="0px"
	 viewBox="0 0 216 144" style="enable-background:new 0 0 216 144;" xml:space="preserve">
<style type="text/css">
	.st0{fill:none;stroke:#000000;stroke-width:5.000000e-02;}
</style>
<g>
	<g>
		<path class="st0" d="M52.3,9.5l-0.3,8.9h-5.2c0.3-2,0.1-3.7-0.8-4.9c-3.2-4.1-14-3.5-13.6,4.1c0.5,8.6,21.1,4.1,21.4,16.1
			c0.2,10-12.4,13.5-21.7,8.8l-6,0.6l0.3-9.3h5.2c-0.5,1.3-0.4,3.4,0.6,4.7c3.9,4.9,15.4,3.4,14.6-4.5c-0.9-7.7-21.2-3-21.2-16.4
			c0-6.9,7.8-9.6,13.4-9.6c4.5,0,7.7,0.9,8.4,1.6L52.3,9.5z"/>
		<path class="st0" d="M76.7,44.1c-8.5,0-17-6.4-17-18.2C59.7,13.5,69.1,8,76.8,8c7.9-0.1,17.1,5.7,17.2,17.9
			C94.1,37.4,85.9,44.1,76.7,44.1z M86.6,25.8c0-8.6-3-14.3-9.8-14.3c-6.6,0.1-9.8,5.7-9.8,14.4c0.1,9,3.4,14.6,9.7,14.6
			C83.4,40.5,86.6,34.7,86.6,25.8z"/>
		<path class="st0" d="M116.5,44.1c-8.5,0-17-6.4-17-18.2c0-12.3,9.4-17.9,17.1-17.9c7.9-0.1,17.1,5.7,17.2,17.9
			C133.8,37.4,125.6,44.1,116.5,44.1z M126.4,25.8c0-8.6-3-14.3-9.8-14.3c-6.6,0.1-9.8,5.7-9.8,14.4c0.1,9,3.4,14.6,9.7,14.6
			C123.2,40.5,126.4,34.7,126.4,25.8z"/>
		<path class="st0" d="M154.9,43.3h-15.6l0.1-3.5c0.9-0.1,2.8-0.3,3.9-0.5c0.5-0.1,1-0.2,1-1.4V15.2c-0.1-1.5-1-2-1.5-2.2
			c-1.3-0.4-3.7-0.3-3.7-0.3l-0.3-3.2l12.1-0.7v6.4c0.1-0.4,0.8-5.4,6.6-6.9c7.7-2.1,15,2,15,11.9v18c0,1.1,0.4,1.2,0.9,1.3
			c1,0.1,3.5,0.3,4.1,0.4l0.1,3.5H162v-3.5c0.7-0.1,2.4-0.2,3.2-0.3c0.5-0.1,0.9-0.2,0.9-1.2V20c0-4.5-3-8.7-8.5-7.7
			c-5.8,1.1-6.6,6.7-6.6,8.3v17.3c0,1.2,0.3,1.2,0.8,1.4c0.7,0.2,2.2,0.3,3.2,0.4V43.3z"/>
	</g>
	<g>
		<path class="st0" d="M41.9,57.5l-0.2,5.3h-3.1c0.2-1.2,0.1-2.2-0.5-3c-1.9-2.4-8.4-2.1-8.2,2.5c0.3,5.2,12.7,2.5,12.8,9.7
			c0.1,6-7.4,8.1-13,5.3l-3.6,0.4l0.2-5.6h3.1c-0.3,0.8-0.2,2,0.4,2.8c2.4,3,9.3,2,8.7-2.7c-0.5-4.6-12.7-1.8-12.7-9.8
			c0-4.1,4.7-5.8,8-5.8c2.7,0,4.6,0.6,5,1L41.9,57.5z"/>
		<path class="st0" d="M56.6,78.3c-5.1,0-10.2-3.9-10.2-10.9c0-7.4,5.6-10.7,10.2-10.7c4.7,0,10.3,3.4,10.3,10.8
			C67,74.3,62.1,78.3,56.6,78.3z M62.5,67.3c0-5.2-1.8-8.6-5.9-8.6c-3.9,0-5.9,3.4-5.9,8.6c0,5.4,2,8.8,5.8,8.8
			C60.6,76.1,62.5,72.7,62.5,67.3z"/>
		<path class="st0" d="M80.4,78.3c-5.1,0-10.2-3.9-10.2-10.9c0-7.4,5.6-10.7,10.2-10.7c4.7,0,10.3,3.4,10.3,10.8
			C90.8,74.3,85.9,78.3,80.4,78.3z M86.4,67.3c0-5.2-1.8-8.6-5.9-8.6c-3.9,0-5.9,3.4-5.9,8.6c0,5.4,2,8.8,5.8,8.8
			C84.4,76.1,86.4,72.7,86.4,67.3z"/>
		<path class="st0" d="M103.5,77.8h-9.3l0.1-2.1c0.5-0.1,1.7-0.2,2.3-0.3c0.3,0,0.6-0.1,0.6-0.8V60.9c0-0.9-0.6-1.2-0.9-1.3
			c-0.8-0.2-2.2-0.2-2.2-0.2l-0.2-1.9l7.2-0.4v3.8c0.1-0.2,0.5-3.2,4-4.1c4.6-1.3,9,1.2,9,7.2v10.8c0,0.7,0.2,0.7,0.6,0.8
			c0.6,0.1,2.1,0.2,2.4,0.2l0.1,2.1h-9.5v-2.1c0.4-0.1,1.4-0.1,1.9-0.2c0.3,0,0.5-0.1,0.5-0.7V63.9c0-2.7-1.8-5.2-5.1-4.6
			c-3.5,0.7-3.9,4-3.9,5v10.4c0,0.7,0.2,0.7,0.5,0.8c0.4,0.1,1.3,0.2,1.9,0.2V77.8z"/>
	</g>
	<g>
		<path class="st0" d="M36.1,89.8L35.9,93h-1.9c0.1-0.7,0-1.3-0.3-1.8c-1.1-1.5-5-1.3-4.9,1.5c0.2,3.1,7.6,1.5,7.7,5.8
			c0.1,3.6-4.5,4.9-7.8,3.2l-2.1,0.2l0.1-3.3h1.9c-0.2,0.5-0.1,1.2,0.2,1.7c1.4,1.8,5.6,1.2,5.2-1.6c-0.3-2.8-7.6-1.1-7.6-5.9
			c0-2.5,2.8-3.5,4.8-3.5c1.6,0,2.8,0.3,3,0.6L36.1,89.8z"/>
		<path class="st0" d="M44.9,102.3c-3.1,0-6.1-2.3-6.1-6.6c0-4.4,3.4-6.4,6.1-6.4c2.8,0,6.2,2,6.2,6.5
			C51.1,99.9,48.1,102.3,44.9,102.3z M48.4,95.7c0-3.1-1.1-5.1-3.5-5.1c-2.4,0-3.5,2-3.5,5.2c0,3.2,1.2,5.3,3.5,5.3
			C47.3,101,48.4,98.9,48.4,95.7z"/>
		<path class="st0" d="M59.2,102.3c-3.1,0-6.1-2.3-6.1-6.6c0-4.4,3.4-6.4,6.1-6.4c2.8,0,6.2,2,6.2,6.5
			C65.4,99.9,62.5,102.3,59.2,102.3z M62.7,95.7c0-3.1-1.1-5.1-3.5-5.1c-2.4,0-3.5,2-3.5,5.2c0,3.2,1.2,5.3,3.5,5.3
			C61.6,101,62.7,98.9,62.7,95.7z"/>
		<path class="st0" d="M73,102h-5.6l0-1.2c0.3,0,1-0.1,1.4-0.2c0.2,0,0.4-0.1,0.4-0.5v-8.2c0-0.5-0.4-0.7-0.5-0.8
			c-0.5-0.1-1.3-0.1-1.3-0.1l-0.1-1.1l4.3-0.2v2.3c0-0.1,0.3-1.9,2.4-2.5c2.8-0.8,5.4,0.7,5.4,4.3v6.5c0,0.4,0.1,0.4,0.3,0.5
			c0.4,0,1.2,0.1,1.5,0.1l0,1.2h-5.7v-1.3c0.2,0,0.9-0.1,1.1-0.1c0.2,0,0.3-0.1,0.3-0.4v-6.6c0-1.6-1.1-3.1-3.1-2.8
			c-2.1,0.4-2.4,2.4-2.4,3v6.2c0,0.4,0.1,0.4,0.3,0.5c0.3,0.1,0.8,0.1,1.1,0.1V102z"/>
	</g>
	<g>
		<path class="st0" d="M32.7,112.8l-0.1,2.1h-1.3c0.1-0.5,0-0.9-0.2-1.2c-0.8-1-3.4-0.8-3.3,1c0.1,2.1,5.1,1,5.1,3.9
			c0,2.4-3,3.2-5.2,2.1l-1.4,0.1l0.1-2.2h1.3c-0.1,0.3-0.1,0.8,0.1,1.1c0.9,1.2,3.7,0.8,3.5-1.1c-0.2-1.8-5.1-0.7-5.1-3.9
			c0-1.7,1.9-2.3,3.2-2.3c1.1,0,1.8,0.2,2,0.4L32.7,112.8z"/>
		<path class="st0" d="M38.6,121.1c-2,0-4.1-1.5-4.1-4.4c0-3,2.3-4.3,4.1-4.3c1.9,0,4.1,1.4,4.1,4.3
			C42.8,119.5,40.8,121.1,38.6,121.1z M41,116.7c0-2.1-0.7-3.4-2.3-3.4c-1.6,0-2.4,1.4-2.3,3.4c0,2.2,0.8,3.5,2.3,3.5
			C40.2,120.2,41,118.8,41,116.7z"/>
		<path class="st0" d="M48.2,121.1c-2,0-4.1-1.5-4.1-4.4c0-3,2.3-4.3,4.1-4.3c1.9,0,4.1,1.4,4.1,4.3
			C52.3,119.5,50.3,121.1,48.2,121.1z M50.5,116.7c0-2.1-0.7-3.4-2.3-3.4c-1.6,0-2.4,1.4-2.3,3.4c0,2.2,0.8,3.5,2.3,3.5
			C49.8,120.2,50.5,118.8,50.5,116.7z"/>
		<path class="st0" d="M57.4,120.9h-3.7l0-0.8c0.2,0,0.7-0.1,0.9-0.1c0.1,0,0.2,0,0.2-0.3v-5.5c0-0.4-0.2-0.5-0.4-0.5
			c-0.3-0.1-0.9-0.1-0.9-0.1l-0.1-0.8l2.9-0.2v1.5c0-0.1,0.2-1.3,1.6-1.7c1.9-0.5,3.6,0.5,3.6,2.9v4.3c0,0.3,0.1,0.3,0.2,0.3
			c0.2,0,0.8,0.1,1,0.1l0,0.8h-3.8v-0.8c0.2,0,0.6,0,0.8-0.1c0.1,0,0.2,0,0.2-0.3v-4.4c0-1.1-0.7-2.1-2-1.8c-1.4,0.3-1.6,1.6-1.6,2
			v4.1c0,0.3,0.1,0.3,0.2,0.3c0.2,0,0.5,0.1,0.8,0.1V120.9z"/>
	</g>
	<g>
		<path class="st0" d="M31,129.2l-0.1,1.4h-0.8c0-0.3,0-0.6-0.1-0.8c-0.5-0.6-2.2-0.6-2.2,0.7c0.1,1.4,3.4,0.7,3.4,2.6
			c0,1.6-2,2.2-3.5,1.4l-1,0.1l0.1-1.5h0.8c-0.1,0.2-0.1,0.5,0.1,0.7c0.6,0.8,2.5,0.5,2.3-0.7c-0.1-1.2-3.4-0.5-3.4-2.6
			c0-1.1,1.2-1.5,2.1-1.5c0.7,0,1.2,0.2,1.3,0.3L31,129.2z"/>
		<path class="st0" d="M34.9,134.7c-1.4,0-2.7-1-2.7-2.9c0-2,1.5-2.9,2.7-2.9c1.3,0,2.7,0.9,2.8,2.9
			C37.7,133.6,36.4,134.7,34.9,134.7z M36.5,131.8c0-1.4-0.5-2.3-1.6-2.3c-1.1,0-1.6,0.9-1.6,2.3c0,1.4,0.5,2.3,1.5,2.3
			C36,134.1,36.5,133.2,36.5,131.8z"/>
		<path class="st0" d="M41.3,134.7c-1.4,0-2.7-1-2.7-2.9c0-2,1.5-2.9,2.7-2.9c1.3,0,2.7,0.9,2.8,2.9
			C44.1,133.6,42.7,134.7,41.3,134.7z M42.9,131.8c0-1.4-0.5-2.3-1.6-2.3c-1.1,0-1.6,0.9-1.6,2.3c0,1.4,0.5,2.3,1.5,2.3
			C42.4,134.1,42.9,133.2,42.9,131.8z"/>
		<path class="st0" d="M47.4,134.6h-2.5l0-0.6c0.1,0,0.5-0.1,0.6-0.1c0.1,0,0.2,0,0.2-0.2v-3.7c0-0.2-0.2-0.3-0.2-0.3
			c-0.2-0.1-0.6-0.1-0.6-0.1l0-0.5l1.9-0.1v1c0-0.1,0.1-0.9,1.1-1.1c1.2-0.3,2.4,0.3,2.4,1.9v2.9c0,0.2,0.1,0.2,0.2,0.2
			c0.2,0,0.6,0,0.7,0.1l0,0.6h-2.5V134c0.1,0,0.4,0,0.5-0.1c0.1,0,0.1,0,0.1-0.2v-2.9c0-0.7-0.5-1.4-1.4-1.2
			c-0.9,0.2-1.1,1.1-1.1,1.3v2.8c0,0.2,0.1,0.2,0.1,0.2c0.1,0,0.3,0,0.5,0.1V134.6z"/>
	</g>
</g>
</svg>
