<svg id="Layer_1" data-name="Layer 1" xmlns="http://www.w3.org/2000/svg" viewBox="0 0 129.24 31.29"><defs><style>.cls-1{fill:none;stroke:#231f20;stroke-width:0.1px;}</style></defs><title>soon</title><path class="cls-1" d="M64.73,53.27l-0.29,7.52H60a5.49,5.49,0,0,0-.69-4.19c-2.7-3.44-11.89-3-11.55,3.51,0.4,7.29,17.92,3.5,18.15,13.67,0.17,8.44-10.51,11.43-18.44,7.47l-5.05.52,0.29-7.87h4.42a4.49,4.49,0,0,0,.52,4C51,82,60.77,80.72,60,74.06c-0.75-6.49-18-2.58-18-13.9C42,54.3,48.65,52,53.42,52c3.85,0,6.49.8,7.12,1.38Z" transform="translate(-42 -51.73)"/><path class="cls-1" d="M85.49,82.62c-7.24,0-14.42-5.46-14.42-15.45,0-10.46,8-15.17,14.47-15.17,6.66-.06,14.53,4.83,14.59,15.22C100.19,77,93.24,82.62,85.49,82.62Zm8.39-15.51C93.87,59.82,91.29,55,85.6,55s-8.33,4.82-8.27,12.18c0.06,7.64,2.87,12.41,8.21,12.41C91.17,79.57,93.87,74.69,93.87,67.11Z" transform="translate(-42 -51.73)"/><path class="cls-1" d="M119.19,82.62c-7.24,0-14.42-5.46-14.42-15.45,0-10.46,8-15.17,14.47-15.17,6.66-.06,14.53,4.83,14.59,15.22C133.89,77,126.94,82.62,119.19,82.62Zm8.39-15.51C127.57,59.82,125,55,119.3,55S111,59.82,111,67.17c0.06,7.64,2.87,12.41,8.21,12.41C124.87,79.57,127.57,74.69,127.57,67.11Z" transform="translate(-42 -51.73)"/><path class="cls-1" d="M151.83,82H138.62l0.11-2.93c0.75-.11,2.41-0.29,3.27-0.4a0.92,0.92,0,0,0,.86-1.15V58.09a1.86,1.86,0,0,0-1.26-1.84,12.87,12.87,0,0,0-3.16-.29l-0.23-2.7,10.22-.58v5.4a7.44,7.44,0,0,1,5.63-5.86c6.55-1.78,12.75,1.67,12.75,10.11V77.62c0,0.92.34,1,.8,1.09,0.86,0.11,2.93.23,3.45,0.34L171.19,82H157.8V79c0.57-.11,2-0.17,2.7-0.29,0.46-.06.75-0.17,0.75-1V62.23c0-3.79-2.53-7.35-7.24-6.49-4.88.92-5.57,5.69-5.57,7V77.39c0,1,.29,1,0.69,1.15,0.63,0.17,1.84.23,2.7,0.35V82Z" transform="translate(-42 -51.73)"/></svg>